<svg xmlns="http://www.w3.org/2000/svg" viewBox="0 0 64 64" role="img" aria-labelledby="title">
  <title id="title">LINE</title>
  <rect width="64" height="64" rx="15" fill="#06C755"/>
  <path fill="#fff" d="M32 13.5c-11.8 0-21.4 7.5-21.4 16.8 0 8.3 7.6 15.2 17.9 16.6.7.1 1.6.5 1.8 1.1.2.5.1 1.3.1 1.8l-.3 1.7c-.1.5-.4 2 1.9 1.1 2.4-.9 12.6-7.4 17.2-12.7 3.2-3.5 4.6-6.5 4.6-9.6C53.4 21 43.8 13.5 32 13.5Z"/>
  <path fill="#06C755" d="M20.5 35.5h-4.8V25.2h2.4v8.2h2.4v2.1Zm5.4 0h-2.4V25.2h2.4v10.3Zm11.2 0h-2.4l-4.2-5.6v5.6h-2.4V25.2h2.4l4.2 5.6v-5.6h2.4v10.3Zm8.9-8.2h-4.6v1.7h4.4v2h-4.4v2.4H46v2.1h-7V25.2h7v2.1Z"/>
</svg>
